# xmcd
# Track frame offsets:
# 150
# 10245
# 20307
# 29055
# 41975
# 53720
# 62140
# 75780
# 87217
# 97310
# 106917
# 115620
# 124750
# 133730
# 143485
# 155437
# 166762
# 177885
# 187100
# 199567
# 210942
# 219285
# 228702
# 239395
# 251735
# 263642
# 275110
# 286312
# 297245
# 307690
#
# Disc length: 4255 seconds
# Revision: 0
# Processed by: cddbd v1.4PL0 Copyright (c) Steve Scherf et al.
# Submitted via: VisiTrax 2.9.6.190 - For more info visit www.synapsa.com
#
DISCID=a4109d1e
DTITLE=Conway Twitty - The Rock and Roll Story
DYEAR=1995
DGENRE=
TTITLE0=It´s Only Make Believe
TTITLE1=Reelin´and Rockin`
TTITLE2=Handy Man
TTITLE3=Whole Lotta Shakin`Goin`on
TTITLE4=Splish Splash
TTITLE5=Blue Suede Shoes
TTITLE6=Shake Rattle And Roll
TTITLE7=Diana
TTITLE8=Jailhouse Rock
TTITLE9=Treat Me Nice
TTITLE10=Great Balls Of Fire
TTITLE11=The Girl Can`t help it
TTITLE12=I´d Still Play The Fool
TTITLE13=Above and Beyond
TTITLE14=Man Alone
TTITLE15=A Tree In The Meadow
TTITLE16=Platin High School
TTITLE17=My Heart Cries
TTITLE18=I Can Hear My Heart Break
TTITLE19=Foggy River
TTITLE20=That`s Where My Lovin`Goes
TTITLE21=Live Fast,Love Hard,Die Young
TTITLE22=A Fallen Star
TTITLE23=Long Black Train
TTITLE24=Man Alone
TTITLE25=A Little piece Of My Heart
TTITLE26=There is Something on Your Mind
TTITLE27=Unchained Melody
TTITLE28=I Hope,I Think,I Wish
TTITLE29=She Ain`t No Angel
EXTD=
EXTT0=
EXTT1=
EXTT2=
EXTT3=
EXTT4=
EXTT5=
EXTT6=
EXTT7=
EXTT8=
EXTT9=
EXTT10=
EXTT11=
EXTT12=
EXTT13=
EXTT14=
EXTT15=
EXTT16=
EXTT17=
EXTT18=
EXTT19=
EXTT20=
EXTT21=
EXTT22=
EXTT23=
EXTT24=
EXTT25=
EXTT26=
EXTT27=
EXTT28=
EXTT29=
PLAYORDER=
